<mxfile host="app.diagrams.net" agent="Mozilla/5.0 (Macintosh; Intel Mac OS X 10_15_7) AppleWebKit/537.36 (KHTML, like Gecko) Chrome/135.0.0.0 Safari/537.36" version="26.2.14">
  <diagram name="Page-1" id="QWNrRRJ9jaA_JSnsuBwR">
    <mxGraphModel dx="1261" dy="871" grid="1" gridSize="10" guides="1" tooltips="1" connect="1" arrows="1" fold="1" page="1" pageScale="1" pageWidth="827" pageHeight="1169" math="0" shadow="0">
      <root>
        <mxCell id="0" />
        <mxCell id="1" parent="0" />
        <mxCell id="enYWfazKcaGoW9QBlqqC-1" value="AIManager" style="swimlane;fontStyle=1;align=center;verticalAlign=top;childLayout=stackLayout;horizontal=1;startSize=26;horizontalStack=0;resizeParent=1;resizeParentMax=0;resizeLast=0;collapsible=1;marginBottom=0;whiteSpace=wrap;html=1;" parent="1" vertex="1">
          <mxGeometry x="320" y="90" width="340" height="300" as="geometry" />
        </mxCell>
        <mxCell id="enYWfazKcaGoW9QBlqqC-2" value="+ instance: AIManager&lt;div&gt;+ ghostChicken: GameObject&lt;/div&gt;&lt;div&gt;+ soundLayers: List&amp;lt;AudioSource&amp;gt;&lt;/div&gt;&lt;div&gt;+ distanceThresholds: List&amp;lt;Float&amp;gt;&lt;/div&gt;&lt;div&gt;+ detectorsThatCanSeeChicken: List&amp;lt;GameObject&amp;gt;&lt;/div&gt;&lt;div&gt;+ chokePointDetector: ChokePointDetector&lt;/div&gt;&lt;div&gt;+ player: GameObject&lt;/div&gt;" style="text;strokeColor=default;fillColor=default;align=left;verticalAlign=top;spacingLeft=4;spacingRight=4;overflow=hidden;rotatable=0;points=[[0,0.5],[1,0.5]];portConstraint=eastwest;whiteSpace=wrap;html=1;" parent="enYWfazKcaGoW9QBlqqC-1" vertex="1">
          <mxGeometry y="26" width="340" height="114" as="geometry" />
        </mxCell>
        <mxCell id="enYWfazKcaGoW9QBlqqC-3" value="" style="line;strokeWidth=1;fillColor=none;align=left;verticalAlign=middle;spacingTop=-1;spacingLeft=3;spacingRight=3;rotatable=0;labelPosition=right;points=[];portConstraint=eastwest;strokeColor=inherit;" parent="enYWfazKcaGoW9QBlqqC-1" vertex="1">
          <mxGeometry y="140" width="340" height="8" as="geometry" />
        </mxCell>
        <mxCell id="enYWfazKcaGoW9QBlqqC-4" value="+ GetAllAIPositions(): List&amp;lt;Vector3&amp;gt;&lt;div&gt;+ GetClosestEnemyDistance(): Float&lt;/div&gt;&lt;div&gt;+ StartAllLayeredSounds(): Void&lt;/div&gt;&lt;div&gt;+ ChickenSpotted(GameObject spotter): Void&lt;/div&gt;&lt;div&gt;+ PlayerReachable(): Bool&lt;/div&gt;&lt;div&gt;+ ChickenLost(GameObject spotter): Void&lt;/div&gt;&lt;div&gt;+ GhostChicken(Transform playerRoot, float time): Void&lt;/div&gt;&lt;div&gt;+ TriggerSwarmOrder(Vector3 position): Void&lt;/div&gt;&lt;div&gt;+ Investigate(Vector3 investigatePosition, GameObject caller, float range): Void&lt;/div&gt;" style="text;strokeColor=default;fillColor=default;align=left;verticalAlign=top;spacingLeft=4;spacingRight=4;overflow=hidden;rotatable=0;points=[[0,0.5],[1,0.5]];portConstraint=eastwest;whiteSpace=wrap;html=1;" parent="enYWfazKcaGoW9QBlqqC-1" vertex="1">
          <mxGeometry y="148" width="340" height="152" as="geometry" />
        </mxCell>
        <mxCell id="enYWfazKcaGoW9QBlqqC-5" value="GameManager" style="html=1;whiteSpace=wrap;" parent="1" vertex="1">
          <mxGeometry x="790" y="90" width="110" height="50" as="geometry" />
        </mxCell>
        <mxCell id="enYWfazKcaGoW9QBlqqC-6" value="«interface»&lt;br&gt;&lt;b&gt;INotify&lt;/b&gt;" style="html=1;whiteSpace=wrap;" parent="1" vertex="1">
          <mxGeometry x="790" y="215" width="110" height="50" as="geometry" />
        </mxCell>
        <mxCell id="enYWfazKcaGoW9QBlqqC-7" value="" style="endArrow=block;dashed=1;endFill=0;endSize=12;html=1;rounded=0;entryX=0;entryY=0.5;entryDx=0;entryDy=0;exitX=1;exitY=0.5;exitDx=0;exitDy=0;" parent="1" source="enYWfazKcaGoW9QBlqqC-1" target="enYWfazKcaGoW9QBlqqC-6" edge="1">
          <mxGeometry width="160" relative="1" as="geometry">
            <mxPoint x="450" y="340" as="sourcePoint" />
            <mxPoint x="610" y="340" as="targetPoint" />
          </mxGeometry>
        </mxCell>
        <mxCell id="enYWfazKcaGoW9QBlqqC-8" value="" style="endArrow=diamondThin;endFill=0;endSize=24;html=1;rounded=0;entryX=0.5;entryY=1;entryDx=0;entryDy=0;exitX=0.5;exitY=0;exitDx=0;exitDy=0;" parent="1" source="enYWfazKcaGoW9QBlqqC-6" target="enYWfazKcaGoW9QBlqqC-5" edge="1">
          <mxGeometry width="160" relative="1" as="geometry">
            <mxPoint x="450" y="340" as="sourcePoint" />
            <mxPoint x="610" y="340" as="targetPoint" />
          </mxGeometry>
        </mxCell>
        <mxCell id="enYWfazKcaGoW9QBlqqC-9" value="" style="endArrow=block;endSize=16;endFill=0;html=1;rounded=0;entryX=0;entryY=0.5;entryDx=0;entryDy=0;exitX=1.003;exitY=0.08;exitDx=0;exitDy=0;exitPerimeter=0;" parent="1" source="enYWfazKcaGoW9QBlqqC-1" target="enYWfazKcaGoW9QBlqqC-5" edge="1">
          <mxGeometry width="160" relative="1" as="geometry">
            <mxPoint x="450" y="340" as="sourcePoint" />
            <mxPoint x="610" y="340" as="targetPoint" />
          </mxGeometry>
        </mxCell>
        <mxCell id="enYWfazKcaGoW9QBlqqC-10" value="ChokePointDetector" style="swimlane;fontStyle=1;align=center;verticalAlign=top;childLayout=stackLayout;horizontal=1;startSize=26;horizontalStack=0;resizeParent=1;resizeParentMax=0;resizeLast=0;collapsible=1;marginBottom=0;whiteSpace=wrap;html=1;" parent="1" vertex="1">
          <mxGeometry x="335" y="470" width="310" height="320" as="geometry" />
        </mxCell>
        <mxCell id="enYWfazKcaGoW9QBlqqC-11" value="+ gridSize: Float&lt;div&gt;+ checkDistance: Float&lt;/div&gt;&lt;div&gt;+ totalDirections: Int&lt;/div&gt;&lt;div&gt;+ opennessThreshold: Float&lt;/div&gt;&lt;div&gt;+ clusterThreshold: Float&lt;/div&gt;&lt;div&gt;+ chokePoints: List&amp;lt;Vector3&amp;gt;&lt;/div&gt;&lt;div&gt;+ rawChokePoints: List&amp;lt;Vector3&amp;gt;&lt;/div&gt;" style="text;strokeColor=default;fillColor=default;align=left;verticalAlign=top;spacingLeft=4;spacingRight=4;overflow=hidden;rotatable=0;points=[[0,0.5],[1,0.5]];portConstraint=eastwest;whiteSpace=wrap;html=1;" parent="enYWfazKcaGoW9QBlqqC-10" vertex="1">
          <mxGeometry y="26" width="310" height="114" as="geometry" />
        </mxCell>
        <mxCell id="enYWfazKcaGoW9QBlqqC-12" value="" style="line;strokeWidth=1;fillColor=none;align=left;verticalAlign=middle;spacingTop=-1;spacingLeft=3;spacingRight=3;rotatable=0;labelPosition=right;points=[];portConstraint=eastwest;strokeColor=inherit;" parent="enYWfazKcaGoW9QBlqqC-10" vertex="1">
          <mxGeometry y="140" width="310" height="8" as="geometry" />
        </mxCell>
        <mxCell id="enYWfazKcaGoW9QBlqqC-13" value="+ DetectChokePoints(): Void&lt;div&gt;+ HasLineOfSight(List&amp;lt;Vector3&amp;gt; cluster, Vector3 point, LayerMask obstacleMask: Bool&lt;/div&gt;&lt;div&gt;+ ClusterAverage(List&amp;lt;Vector3&amp;gt; cluster): Vector3&lt;/div&gt;&lt;div&gt;+ GetNavMeshBounds(): Bounds&lt;/div&gt;&lt;div&gt;+ IsValidNavMeshPoint(Vector3 point): Bool&lt;/div&gt;&lt;div&gt;+ IsChokePoint(Vector3 point): Bool&lt;/div&gt;&lt;div&gt;+ GetChokePoints(): List&amp;lt;Vector3&amp;gt;&lt;/div&gt;" style="text;strokeColor=default;fillColor=default;align=left;verticalAlign=top;spacingLeft=4;spacingRight=4;overflow=hidden;rotatable=0;points=[[0,0.5],[1,0.5]];portConstraint=eastwest;whiteSpace=wrap;html=1;" parent="enYWfazKcaGoW9QBlqqC-10" vertex="1">
          <mxGeometry y="148" width="310" height="172" as="geometry" />
        </mxCell>
        <mxCell id="enYWfazKcaGoW9QBlqqC-14" value="" style="endArrow=diamondThin;endFill=0;endSize=24;html=1;rounded=0;entryX=0.5;entryY=0;entryDx=0;entryDy=0;" parent="1" target="enYWfazKcaGoW9QBlqqC-10" edge="1">
          <mxGeometry width="160" relative="1" as="geometry">
            <mxPoint x="490" y="390" as="sourcePoint" />
            <mxPoint x="630" y="490" as="targetPoint" />
          </mxGeometry>
        </mxCell>
        <mxCell id="enYWfazKcaGoW9QBlqqC-15" value="&lt;p style=&quot;margin:0px;margin-top:4px;text-align:center;&quot;&gt;&lt;i&gt;&amp;lt;&amp;lt;Interface&amp;gt;&amp;gt;&lt;/i&gt;&lt;br&gt;&lt;b&gt;IDetector&lt;/b&gt;&lt;/p&gt;&lt;hr size=&quot;1&quot; style=&quot;border-style:solid;&quot;&gt;&lt;p style=&quot;margin:0px;margin-left:4px;&quot;&gt;+ NotificationType: enum&lt;br&gt;+ AIType: enum&lt;/p&gt;&lt;hr size=&quot;1&quot; style=&quot;border-style:solid;&quot;&gt;&lt;p style=&quot;margin:0px;margin-left:4px;&quot;&gt;+ GetAIType(): AIType&lt;/p&gt;&lt;p style=&quot;margin:0px;margin-left:4px;&quot;&gt;+ SetOrder(Order order): Void&lt;/p&gt;&lt;p style=&quot;margin:0px;margin-left:4px;&quot;&gt;+ GetOrder(): Order&lt;/p&gt;&lt;p style=&quot;margin:0px;margin-left:4px;&quot;&gt;+ Notify(NotificationType type): Void&lt;/p&gt;&lt;p style=&quot;margin:0px;margin-left:4px;&quot;&gt;+ GetPosition(): Vector3&lt;/p&gt;" style="verticalAlign=top;align=left;overflow=fill;html=1;whiteSpace=wrap;" parent="1" vertex="1">
          <mxGeometry x="745" y="660" width="260" height="220" as="geometry" />
        </mxCell>
        <mxCell id="enYWfazKcaGoW9QBlqqC-16" value="Detector" style="html=1;whiteSpace=wrap;" parent="1" vertex="1">
          <mxGeometry x="820" y="438" width="110" height="50" as="geometry" />
        </mxCell>
        <mxCell id="ki_voZBNBWuq_5pqAt1B-1" value="«interface»&lt;br&gt;&lt;b&gt;Action&lt;/b&gt;" style="html=1;whiteSpace=wrap;" vertex="1" parent="1">
          <mxGeometry x="1260" y="438" width="110" height="50" as="geometry" />
        </mxCell>
        <mxCell id="ki_voZBNBWuq_5pqAt1B-2" value="DiveAction" style="html=1;whiteSpace=wrap;" vertex="1" parent="1">
          <mxGeometry x="1441" y="320" width="130" height="50" as="geometry" />
        </mxCell>
        <mxCell id="ki_voZBNBWuq_5pqAt1B-3" value="ConcussPlayerAction" style="html=1;whiteSpace=wrap;" vertex="1" parent="1">
          <mxGeometry x="1441" y="390" width="130" height="50" as="geometry" />
        </mxCell>
        <mxCell id="ki_voZBNBWuq_5pqAt1B-4" value="EndOrderAction" style="html=1;whiteSpace=wrap;" vertex="1" parent="1">
          <mxGeometry x="1441" y="490" width="130" height="50" as="geometry" />
        </mxCell>
        <mxCell id="ki_voZBNBWuq_5pqAt1B-5" value="LookAction" style="html=1;whiteSpace=wrap;" vertex="1" parent="1">
          <mxGeometry x="1441" y="560" width="130" height="50" as="geometry" />
        </mxCell>
        <mxCell id="ki_voZBNBWuq_5pqAt1B-6" value="&lt;font style=&quot;font-size: 25px;&quot;&gt;...&lt;/font&gt;" style="text;align=center;fontStyle=1;verticalAlign=middle;spacingLeft=3;spacingRight=3;strokeColor=none;rotatable=0;points=[[0,0.5],[1,0.5]];portConstraint=eastwest;html=1;" vertex="1" parent="1">
          <mxGeometry x="1466" y="450" width="80" height="26" as="geometry" />
        </mxCell>
        <mxCell id="ki_voZBNBWuq_5pqAt1B-7" value="" style="endArrow=block;dashed=1;endFill=0;endSize=12;html=1;rounded=0;entryX=1;entryY=0;entryDx=0;entryDy=0;exitX=0;exitY=0.5;exitDx=0;exitDy=0;" edge="1" parent="1" source="ki_voZBNBWuq_5pqAt1B-2" target="ki_voZBNBWuq_5pqAt1B-1">
          <mxGeometry width="160" relative="1" as="geometry">
            <mxPoint x="1110" y="590" as="sourcePoint" />
            <mxPoint x="1270" y="590" as="targetPoint" />
          </mxGeometry>
        </mxCell>
        <mxCell id="ki_voZBNBWuq_5pqAt1B-8" value="" style="endArrow=block;dashed=1;endFill=0;endSize=12;html=1;rounded=0;entryX=1;entryY=0.25;entryDx=0;entryDy=0;exitX=0;exitY=0.5;exitDx=0;exitDy=0;" edge="1" parent="1" source="ki_voZBNBWuq_5pqAt1B-3" target="ki_voZBNBWuq_5pqAt1B-1">
          <mxGeometry width="160" relative="1" as="geometry">
            <mxPoint x="1451" y="355" as="sourcePoint" />
            <mxPoint x="1380" y="448" as="targetPoint" />
          </mxGeometry>
        </mxCell>
        <mxCell id="ki_voZBNBWuq_5pqAt1B-9" value="" style="endArrow=block;dashed=1;endFill=0;endSize=12;html=1;rounded=0;entryX=1;entryY=0.64;entryDx=0;entryDy=0;exitX=0;exitY=0.5;exitDx=0;exitDy=0;entryPerimeter=0;" edge="1" parent="1" source="ki_voZBNBWuq_5pqAt1B-4" target="ki_voZBNBWuq_5pqAt1B-1">
          <mxGeometry width="160" relative="1" as="geometry">
            <mxPoint x="1451" y="425" as="sourcePoint" />
            <mxPoint x="1380" y="461" as="targetPoint" />
          </mxGeometry>
        </mxCell>
        <mxCell id="ki_voZBNBWuq_5pqAt1B-10" value="" style="endArrow=block;dashed=1;endFill=0;endSize=12;html=1;rounded=0;entryX=1;entryY=1;entryDx=0;entryDy=0;exitX=0;exitY=0.5;exitDx=0;exitDy=0;" edge="1" parent="1" source="ki_voZBNBWuq_5pqAt1B-5" target="ki_voZBNBWuq_5pqAt1B-1">
          <mxGeometry width="160" relative="1" as="geometry">
            <mxPoint x="1461" y="435" as="sourcePoint" />
            <mxPoint x="1390" y="471" as="targetPoint" />
          </mxGeometry>
        </mxCell>
        <mxCell id="ki_voZBNBWuq_5pqAt1B-11" value="Farmer" style="html=1;whiteSpace=wrap;" vertex="1" parent="1">
          <mxGeometry x="1080" y="340" width="110" height="50" as="geometry" />
        </mxCell>
        <mxCell id="ki_voZBNBWuq_5pqAt1B-12" value="Dog" style="html=1;whiteSpace=wrap;" vertex="1" parent="1">
          <mxGeometry x="1080" y="438" width="110" height="50" as="geometry" />
        </mxCell>
        <mxCell id="ki_voZBNBWuq_5pqAt1B-13" value="Tractor" style="html=1;whiteSpace=wrap;" vertex="1" parent="1">
          <mxGeometry x="1080" y="534.5" width="110" height="50" as="geometry" />
        </mxCell>
        <mxCell id="ki_voZBNBWuq_5pqAt1B-17" value="" style="endArrow=block;dashed=1;endFill=0;endSize=12;html=1;rounded=0;exitX=0.5;exitY=1;exitDx=0;exitDy=0;entryX=0.5;entryY=0;entryDx=0;entryDy=0;" edge="1" parent="1" source="enYWfazKcaGoW9QBlqqC-16" target="enYWfazKcaGoW9QBlqqC-15">
          <mxGeometry width="160" relative="1" as="geometry">
            <mxPoint x="840" y="450" as="sourcePoint" />
            <mxPoint x="1000" y="450" as="targetPoint" />
          </mxGeometry>
        </mxCell>
        <mxCell id="ki_voZBNBWuq_5pqAt1B-18" value="" style="endArrow=open;endFill=1;endSize=12;html=1;rounded=0;entryX=1;entryY=0.5;entryDx=0;entryDy=0;exitX=0;exitY=0;exitDx=0;exitDy=0;" edge="1" parent="1" source="ki_voZBNBWuq_5pqAt1B-1" target="ki_voZBNBWuq_5pqAt1B-11">
          <mxGeometry width="160" relative="1" as="geometry">
            <mxPoint x="1270" y="350" as="sourcePoint" />
            <mxPoint x="1100" y="540" as="targetPoint" />
          </mxGeometry>
        </mxCell>
        <mxCell id="ki_voZBNBWuq_5pqAt1B-19" value="" style="endArrow=open;endFill=1;endSize=12;html=1;rounded=0;entryX=1;entryY=0.5;entryDx=0;entryDy=0;exitX=0;exitY=0.5;exitDx=0;exitDy=0;" edge="1" parent="1" source="ki_voZBNBWuq_5pqAt1B-1" target="ki_voZBNBWuq_5pqAt1B-12">
          <mxGeometry width="160" relative="1" as="geometry">
            <mxPoint x="1290" y="350" as="sourcePoint" />
            <mxPoint x="1270" y="448" as="targetPoint" />
          </mxGeometry>
        </mxCell>
        <mxCell id="ki_voZBNBWuq_5pqAt1B-20" value="" style="endArrow=open;endFill=1;endSize=12;html=1;rounded=0;exitX=0;exitY=1;exitDx=0;exitDy=0;entryX=1;entryY=0.5;entryDx=0;entryDy=0;" edge="1" parent="1" source="ki_voZBNBWuq_5pqAt1B-1" target="ki_voZBNBWuq_5pqAt1B-13">
          <mxGeometry width="160" relative="1" as="geometry">
            <mxPoint x="1210" y="385" as="sourcePoint" />
            <mxPoint x="1290" y="530" as="targetPoint" />
          </mxGeometry>
        </mxCell>
        <mxCell id="ki_voZBNBWuq_5pqAt1B-21" value="" style="endArrow=diamondThin;endFill=0;endSize=24;html=1;rounded=0;entryX=1;entryY=0.5;entryDx=0;entryDy=0;exitX=0;exitY=0.5;exitDx=0;exitDy=0;" edge="1" parent="1" source="ki_voZBNBWuq_5pqAt1B-12" target="enYWfazKcaGoW9QBlqqC-16">
          <mxGeometry width="160" relative="1" as="geometry">
            <mxPoint x="940" y="540" as="sourcePoint" />
            <mxPoint x="1100" y="540" as="targetPoint" />
          </mxGeometry>
        </mxCell>
        <mxCell id="ki_voZBNBWuq_5pqAt1B-22" value="" style="endArrow=diamondThin;endFill=0;endSize=24;html=1;rounded=0;entryX=1;entryY=0;entryDx=0;entryDy=0;exitX=0;exitY=0.5;exitDx=0;exitDy=0;" edge="1" parent="1" source="ki_voZBNBWuq_5pqAt1B-11" target="enYWfazKcaGoW9QBlqqC-16">
          <mxGeometry width="160" relative="1" as="geometry">
            <mxPoint x="1090" y="473" as="sourcePoint" />
            <mxPoint x="940" y="473" as="targetPoint" />
          </mxGeometry>
        </mxCell>
        <mxCell id="ki_voZBNBWuq_5pqAt1B-23" value="" style="endArrow=diamondThin;endFill=0;endSize=24;html=1;rounded=0;entryX=1;entryY=1;entryDx=0;entryDy=0;exitX=0;exitY=0.5;exitDx=0;exitDy=0;" edge="1" parent="1" source="ki_voZBNBWuq_5pqAt1B-13" target="enYWfazKcaGoW9QBlqqC-16">
          <mxGeometry width="160" relative="1" as="geometry">
            <mxPoint x="1100" y="483" as="sourcePoint" />
            <mxPoint x="950" y="483" as="targetPoint" />
          </mxGeometry>
        </mxCell>
        <mxCell id="ki_voZBNBWuq_5pqAt1B-24" value="Enemy" style="shape=umlFrame;whiteSpace=wrap;html=1;pointerEvents=0;" vertex="1" parent="1">
          <mxGeometry x="800" y="280" width="427.5" height="350" as="geometry" />
        </mxCell>
        <mxCell id="ki_voZBNBWuq_5pqAt1B-25" value="" style="endArrow=open;endFill=1;endSize=12;html=1;rounded=0;exitX=-0.008;exitY=0.096;exitDx=0;exitDy=0;exitPerimeter=0;entryX=1;entryY=0.75;entryDx=0;entryDy=0;" edge="1" parent="1" source="ki_voZBNBWuq_5pqAt1B-24" target="enYWfazKcaGoW9QBlqqC-1">
          <mxGeometry width="160" relative="1" as="geometry">
            <mxPoint x="830" y="460" as="sourcePoint" />
            <mxPoint x="990" y="460" as="targetPoint" />
          </mxGeometry>
        </mxCell>
      </root>
    </mxGraphModel>
  </diagram>
</mxfile>
